#!OML:ASF F:\VICON\USERDATA\INSTALL\rory3\rory3.ASF
:FULLY-SPECIFIED
:DEGREES
1735
root 0.719588 17.9246 3.34565 368.826 -35.9595 4.21184
lowerback 6.12511 -1.83872 -7.74009
upperback -0.0117183 -2.91455 2.75587
thorax -2.92303 -1.32619 7.49929
lowerneck -11.0738 -11.4906 -14.0041
upperneck 29.652 -18.4075 13.4476
head 14.7925 -8.24189 4.55185
rclavicle -7.33515e-014 -1.74931e-014
rhumerus -30.2016 -5.87423 -75.6598
rradius 34.8307
rwrist 14.5238
rhand -27.2074 2.55414
rfingers 7.12502
rthumb -0.620376 -27.4247
lclavicle -7.33515e-014 -1.74931e-014
lhumerus -34.9621 10.4048 73.8656
lradius 31.3795
lwrist 2.38792
lhand -17.7007 29.1343
lfingers 7.12502
lthumb 8.55921 58.9408
rfemur -32.1025 -6.93304 20.1308
rtibia 30.3518
rfoot -11.2257 -12.5547
rtoes 14.3021
lfemur -7.98612 3.27709 -17.5382
ltibia 25.5923
lfoot -6.02401 29.1456
ltoes -27.0249
1736
root 0.631903 17.9439 3.36612 368.786 -36.3686 3.99417
lowerback 6.43019 -2.14635 -7.65882
upperback -0.114239 -3.33398 3.10109
thorax -3.10829 -1.52312 7.87213
lowerneck -10.951 -11.3404 -14.218
upperneck 29.9798 -18.1397 13.1955
head 14.8545 -8.18583 4.55578
rclavicle -3.37934e-014 -4.77083e-015
rhumerus -30.4959 -5.41345 -75.2572
rradius 34.4452
rwrist 14.1105
rhand -27.3378 2.30412
rfingers 7.12502
rthumb -0.746368 -27.6743
lclavicle -3.37934e-014 -4.77083e-015
lhumerus -35.2717 11.1728 73.7897
lradius 30.7025
lwrist 1.59667
lhand -17.842 28.4775
lfingers 7.12502
lthumb 8.42286 58.2895
rfemur -31.5412 -6.37819 20.4612
rtibia 30.0614
rfoot -11.4689 -12.7101
rtoes 14.5085
lfemur -8.01291 3.57026 -17.068
ltibia 26.3811
lfoot -4.55897 28.7244
ltoes -24.3953
1737
root 0.546879 17.9595 3.38846 368.836 -36.6649 3.40612
lowerback 6.75338 -2.37053 -7.02814
upperback -0.0917074 -3.59867 3.36328
thorax -3.23638 -1.65939 7.82851
lowerneck -10.9485 -11.3836 -14.3354
upperneck 30.283 -18.2014 13.0335
head 14.998 -8.24266 4.50154
rclavicle -7.63333e-014 -1.43125e-014
rhumerus -30.866 -5.5647 -74.7522
rradius 34.086
rwrist 14.2538
rhand -27.2946 2.6157
rfingers 7.12502
rthumb -0.704609 -27.3629
lclavicle -7.63333e-014 -1.43125e-014
lhumerus -35.2695 11.274 73.9222
lradius 30.028
lwrist 0.813153
lhand -18.4005 28.2088
lfingers 7.12502
lthumb 7.88377 58.0418
rfemur -30.7468 -5.87584 21.0869
rtibia 29.6569
rfoot -11.6468 -12.8283
rtoes 15.0379
lfemur -7.96863 3.69494 -16.2375
ltibia 27.3225
lfoot -3.4741 28.3662
ltoes -23.9762
1738
root 0.460739 17.9718 3.41007 368.859 -37.1745 3.15109
lowerback 6.79179 -2.338 -6.53385
upperback -0.0476818 -3.51615 3.43044
thorax -3.25161 -1.62686 7.61078
lowerneck -10.955 -11.6293 -14.6249
upperneck 30.5423 -18.6489 13.2122
head 15.2719 -8.4433 4.53002
rclavicle -7.7526e-015 3.57812e-014
rhumerus -31.4254 -5.88493 -74.2876
rradius 34.1186
rwrist 13.8729
rhand -26.944 2.0296
rfingers 7.12502
rthumb -0.365982 -27.9498
lclavicle -7.7526e-015 3.57812e-014
lhumerus -34.844 10.2071 74.4943
lradius 29.4884
lwrist 1.15334
lhand -18.8976 28.1562
lfingers 7.12502
lthumb 7.40397 58.0066
rfemur -30.1735 -5.42863 21.464
rtibia 29.2155
rfoot -11.6377 -12.7779
rtoes 15.253
lfemur -8.14865 4.09266 -15.7484
ltibia 28.3981
lfoot -2.67291 27.9344
ltoes -24.5761
1739
root 0.374345 17.9827 3.43314 368.802 -37.8165 3.10798
lowerback 6.70601 -2.22742 -6.20418
upperback 0.0133512 -3.33668 3.46483
thorax -3.18756 -1.54733 7.43691
lowerneck -10.7776 -11.8113 -15.0099
upperneck 30.5896 -18.9876 13.4812
head 15.4127 -8.61051 4.63937
rclavicle 1.51076e-014 -6.36111e-015
rhumerus -31.8635 -6.63114 -73.6947
rradius 34.0394
rwrist 13.9642
rhand -26.5396 1.54942
rfingers 7.12502
rthumb 0.0245389 -28.4303
lclavicle 1.51076e-014 -6.36111e-015
lhumerus -34.2965 8.99071 75.1443
lradius 29.0867
lwrist 1.48395
lhand -18.6067 28.2698
lfingers 7.12502
lthumb 7.68475 58.1102
rfemur -29.7104 -5.07088 21.6875
rtibia 28.8526
rfoot -11.552 -12.5553
rtoes 14.7937
lfemur -8.37295 4.4987 -15.4894
ltibia 29.5038
lfoot -1.94327 27.5217
ltoes -23.975
